<svg width="225" height="40" viewBox="0 0 225 40" fill="none" xmlns="http://www.w3.org/2000/svg">
<path d="M8.57835 7.15618H0.488281V3.06122H21.6656V7.15618H13.5755V30.4804H8.59702L8.57835 7.15618Z" fill="white"/>
<path d="M25.5364 9.89015H29.5939L29.9672 13.5355H30.1104C31.6102 10.8562 33.8443 9.36157 36.1033 9.36157C36.9201 9.32167 37.7355 9.46508 38.4867 9.78079L37.6279 13.973C36.93 13.754 36.2016 13.6413 35.4685 13.6388C33.782 13.6388 31.7346 14.7628 30.49 17.8917V30.4804H25.5364V9.89015Z" fill="white"/>
<path d="M40.8079 24.9455C40.8079 20.5346 44.5417 18.2623 53.2106 17.3327C53.1421 15.1273 52.2335 13.3046 49.3771 13.3046C47.2861 13.3046 45.3072 14.2281 43.4527 15.3339L41.6542 12.0895C44.223 10.4145 47.2229 9.47967 50.3106 9.39191C55.5816 9.39191 58.1766 12.5634 58.1766 18.2988V30.4803H54.1005L53.7271 28.202H53.5839C51.717 29.7756 49.5327 30.9846 47.0434 30.9846C43.3531 30.9846 40.8079 28.5362 40.8079 24.9455ZM53.2106 24.9455V20.3341C47.4915 21.0388 45.581 22.497 45.581 24.587C45.581 26.4097 46.8256 27.1995 48.6241 27.1995C50.4226 27.1995 51.6486 26.3732 53.2106 24.9637V24.9455Z" fill="white"/>
<path d="M63.6095 10.1089L66.7211 9.8902H75.533V13.73H63.6095V10.1089ZM66.441 7.75766C66.441 3.50474 68.4511 0.363647 73.4358 0.363647C74.7587 0.369564 76.069 0.6147 77.3004 1.08665L76.3545 4.68948C75.6335 4.38192 74.8573 4.21672 74.0706 4.20343C72.3157 4.20343 71.3884 5.28489 71.3884 7.6726V30.4804H66.4099L66.441 7.75766Z" fill="white"/>
<path d="M80.1505 3.54722C80.1505 1.92504 81.4511 0.819275 83.2061 0.819275C84.961 0.819275 86.2616 1.92504 86.2616 3.54722C86.2616 5.16941 84.9548 6.28125 83.2061 6.28125C81.4574 6.28125 80.1505 5.14511 80.1505 3.54722ZM80.7168 9.89016H85.6642V30.4804H80.7168V9.89016Z" fill="white"/>
<path d="M93.468 0.867859H98.2847V19.3802H98.4216L106.238 9.90836H111.652L104.446 18.2745L112.411 30.4804H107.034L101.608 21.5432L98.3096 25.2493V30.4804H93.468V0.867859Z" fill="white"/>
<path d="M115.51 34.223C115.51 32.4854 116.612 30.9665 118.553 29.8243V29.6602C117.955 29.3008 117.463 28.7938 117.129 28.1901C116.795 27.5864 116.629 26.9074 116.649 26.2214C116.649 24.6296 117.763 23.2201 118.983 22.3817V22.2115C118.123 21.576 117.424 20.7553 116.942 19.8133C116.459 18.8712 116.206 17.8332 116.201 16.7799C116.201 12.0531 120.115 9.38593 124.528 9.38593C125.587 9.38201 126.638 9.5525 127.639 9.89021H135.175V13.4748H131.33C132.14 14.4583 132.572 15.688 132.549 16.9501C132.549 21.525 128.996 23.9735 124.528 23.9735C123.552 23.9625 122.586 23.7793 121.677 23.4327C121.355 23.654 121.092 23.9491 120.913 24.2923C120.734 24.6354 120.644 25.0162 120.651 25.4012C120.651 26.5556 121.509 27.2604 124.067 27.2604H127.801C132.842 27.2604 135.524 28.7914 135.524 32.3457C135.524 36.4042 131.168 39.6364 124.273 39.6364C119.257 39.5878 115.51 37.8259 115.51 34.223ZM130.763 33.1112C130.763 31.5194 129.463 31.0515 127.029 31.0515H124.136C123.175 31.0727 122.215 30.9767 121.279 30.766C120.805 31.0581 120.409 31.4573 120.125 31.9299C119.841 32.4025 119.678 32.9347 119.649 33.4818C119.649 35.3592 121.715 36.4528 125.026 36.4528C128.448 36.4528 130.763 34.8913 130.763 33.1112ZM128.187 16.7799C128.187 14.1978 126.594 12.7214 124.528 12.7214C122.462 12.7214 120.875 14.1796 120.875 16.7799C120.875 19.3803 122.505 20.9235 124.528 20.9235C126.55 20.9235 128.187 19.3803 128.187 16.7799Z" fill="white"/>
<path d="M140.789 9.89017H144.84L145.22 13.5355H145.356C146.856 10.8562 149.09 9.36159 151.349 9.36159C152.168 9.32119 152.986 9.4646 153.739 9.78081L152.88 13.973C152.18 13.754 151.45 13.6413 150.715 13.6388C149.028 13.6388 146.981 14.7628 145.736 17.8917V30.4804H140.789V9.89017Z" fill="white"/>
<path d="M156.054 24.9455C156.054 20.5346 159.788 18.2623 168.457 17.3327C168.388 15.1273 167.48 13.3046 164.629 13.3046C162.532 13.3046 160.553 14.2281 158.699 15.3339L156.882 12.0895C159.451 10.4154 162.451 9.48065 165.538 9.39191C170.809 9.39191 173.404 12.5634 173.404 18.2988V30.4803H169.353L168.973 28.202H168.836C166.969 29.7756 164.779 30.9846 162.29 30.9846C158.599 30.9846 156.054 28.5362 156.054 24.9455ZM168.457 24.9455V20.3341C162.738 21.0389 160.833 22.497 160.833 24.587C160.833 26.4097 162.078 27.1995 163.87 27.1995C165.662 27.1995 166.895 26.3732 168.457 24.9637V24.9455Z" fill="white"/>
<path d="M180.847 9.8902H184.905L185.278 12.6971H185.409C187.195 10.8744 189.236 9.38593 191.881 9.38593C194.992 9.38593 196.735 10.759 197.706 13.0738C199.722 10.9777 201.807 9.38593 204.489 9.38593C208.938 9.38593 210.998 12.369 210.998 17.5698V30.4804H206.051V18.1652C206.051 14.775 205.018 13.5052 202.802 13.5052C201.464 13.5052 200.02 14.3436 198.39 16.0691V30.4804H193.443V18.1652C193.443 14.775 192.416 13.5052 190.2 13.5052C188.894 13.5052 187.412 14.3436 185.782 16.0691V30.4804H180.835L180.847 9.8902Z" fill="white"/>
<path d="M218.117 27.7282C218.144 27.1169 218.354 26.5268 218.722 26.0311C219.089 25.5354 219.597 25.156 220.184 24.94C220.77 24.724 221.409 24.6809 222.02 24.8161C222.631 24.9513 223.188 25.2588 223.622 25.7004C224.055 26.142 224.347 26.6982 224.46 27.3001C224.572 27.9019 224.501 28.5228 224.256 29.0857C224.01 29.6486 223.601 30.1287 223.078 30.4662C222.555 30.8038 221.943 30.9841 221.316 30.9847C220.885 30.9834 220.458 30.8972 220.062 30.7314C219.665 30.5656 219.307 30.3235 219.008 30.0195C218.71 29.7156 218.477 29.3561 218.324 28.9624C218.171 28.5687 218.101 28.1489 218.117 27.7282Z" fill="white"/>
</svg>
