<svg width="30" height="28" viewBox="0 0 30 28" fill="none" xmlns="http://www.w3.org/2000/svg">
<path fill-rule="evenodd" clip-rule="evenodd" d="M11.5884 17.4808C16.2053 17.4808 22.3438 18.0007 22.3438 22.4986C22.3438 27.2367 15.1912 27.521 12.1231 27.538L11.0092 27.538C7.73784 27.5211 0.833099 27.2384 0.833099 22.5269C0.833099 17.7835 7.98569 17.4989 11.0538 17.4819L11.4224 17.4808C11.4798 17.4808 11.5352 17.4808 11.5884 17.4808ZM11.5884 19.6058C7.65152 19.6058 2.9581 20.1115 2.9581 22.5269C2.9581 24.4423 5.86227 25.4141 11.5884 25.4141C17.3146 25.4141 20.2188 24.4324 20.2188 22.4986C20.2188 20.579 17.3146 19.6058 11.5884 19.6058ZM24.5009 16.819C28.3344 17.3928 29.1377 19.1679 29.1377 20.5548C29.1377 21.5875 28.6914 22.9858 26.5622 23.7919C26.4389 23.8386 26.3114 23.8613 26.1853 23.8613C25.7561 23.8613 25.3523 23.5992 25.1923 23.1756C24.984 22.6274 25.2603 22.0125 25.8085 21.8057C27.0127 21.3495 27.0127 20.7928 27.0127 20.5548C27.0127 19.7515 26.0621 19.2019 24.1878 18.9228C23.607 18.835 23.2061 18.2938 23.2925 17.7144C23.3803 17.1335 23.9314 16.744 24.5009 16.819ZM11.5884 0.541687C15.599 0.541687 18.8631 3.80569 18.8631 7.81627C18.8715 9.7486 18.1221 11.5733 16.7564 12.9474C15.3936 14.323 13.5732 15.0838 11.6366 15.0909H11.5884C7.57643 15.0909 4.31243 11.8269 4.31243 7.81627C4.31243 3.80569 7.57643 0.541687 11.5884 0.541687ZM21.6292 2.13374C24.413 2.5899 26.4331 4.97132 26.4331 7.79474C26.4275 10.6352 24.3067 13.0747 21.4989 13.4685C21.4493 13.4756 21.3997 13.4784 21.3501 13.4784C20.8288 13.4784 20.374 13.0945 20.299 12.5632C20.2182 11.9824 20.6219 11.4441 21.2028 11.3633C22.9708 11.1154 24.3053 9.58115 24.3081 7.79332C24.3081 6.01682 23.0359 4.51799 21.2864 4.23182C20.7069 4.13549 20.3145 3.59007 20.4095 3.01065C20.5044 2.43124 21.0526 2.04165 21.6292 2.13374ZM11.5884 2.66669C8.74802 2.66669 6.43743 4.97727 6.43743 7.81627C6.43743 10.6553 8.74802 12.9659 11.5884 12.9659H11.6323C12.998 12.9602 14.2843 12.4233 15.2491 11.45C16.2153 10.4796 16.7437 9.18902 16.7381 7.82052C16.7381 4.97727 14.4274 2.66669 11.5884 2.66669Z" fill="#849AA9"/>
</svg>
