<svg width="56" height="56" viewBox="0 0 56 56" fill="none" xmlns="http://www.w3.org/2000/svg">
    <path
        d="M53.0458 6.99549V48.992C53.0551 50.8376 52.331 52.6113 51.0328 53.9231C49.7346 55.2348 47.9685 55.9773 46.123 55.9872C45.8361 55.9894 45.5493 55.9738 45.2644 55.9405C43.5418 55.6849 41.9721 54.8086 40.8505 53.4765C39.7289 52.1444 39.1329 50.4483 39.1745 48.7074V7.28015C39.1333 5.53751 39.731 3.83998 40.8549 2.50759C41.9788 1.17521 43.5514 0.300011 45.276 0.0470052C46.2545 -0.067274 47.2461 0.0274642 48.1852 0.324955C49.1244 0.622447 49.9897 1.11591 50.7239 1.77273C51.4581 2.42954 52.0446 3.23473 52.4444 4.13507C52.8443 5.0354 53.0485 6.01036 53.0435 6.99549H53.0458ZM9.39731 42.1276C8.47581 42.1106 7.56017 42.2776 6.7039 42.6185C5.84762 42.9595 5.06788 43.4676 4.41021 44.1134C3.75255 44.7591 3.23016 45.5294 2.87355 46.3792C2.51695 47.2291 2.33328 48.1415 2.33328 49.0632C2.33328 49.9849 2.51695 50.8973 2.87355 51.7472C3.23016 52.597 3.75255 53.3673 4.41021 54.013C5.06788 54.6588 5.84762 55.1669 6.7039 55.5079C7.56017 55.8489 8.47581 56.0158 9.39731 55.9989C11.2147 55.9655 12.9465 55.2201 14.2199 53.9231C15.4934 52.626 16.2069 50.8809 16.2069 49.0632C16.2069 47.2455 15.4934 45.5004 14.2199 44.2033C12.9465 42.9063 11.2147 42.1609 9.39731 42.1276ZM27.7648 21.1048H27.6482C25.7964 21.2061 24.0567 22.024 22.7973 23.3853C21.5379 24.7466 20.8576 26.5445 20.9003 28.3986V47.0298C20.9003 52.086 23.1263 55.1542 26.3835 55.8099C27.3942 56.0149 28.4379 55.9923 29.4389 55.7439C30.4398 55.4954 31.3729 55.0273 32.1704 54.3734C32.9679 53.7195 33.6099 52.8963 34.0497 51.9635C34.4895 51.0307 34.7162 50.0117 34.7133 48.9804V28.0766C34.7148 27.1626 34.5363 26.2572 34.188 25.4122C33.8396 24.5671 33.3282 23.799 32.683 23.1516C32.0377 22.5042 31.2713 21.9902 30.4275 21.639C29.5836 21.2879 28.6788 21.1063 27.7648 21.1048Z"
        fill="#fff" />
</svg>