<svg width="56" height="56" viewBox="0 0 56 56" fill="none" xmlns="http://www.w3.org/2000/svg">
    <path
        d="M35.7232 20.2772C42.258 26.8188 42.1683 37.3066 35.7625 43.7479C35.7505 43.761 35.7363 43.7752 35.7232 43.7884L28.3732 51.1384C21.8905 57.621 11.3436 57.6201 4.86198 51.1384C-1.62066 44.6568 -1.62066 34.1087 4.86198 27.6272L8.92044 23.5687C9.99669 22.4924 11.8502 23.2078 11.9057 24.7287C11.9766 26.6671 12.3242 28.6145 12.9656 30.4951C13.1828 31.1318 13.0276 31.8362 12.5518 32.312L11.1204 33.7434C8.05507 36.8087 7.95893 41.7999 10.9941 44.8952C14.0592 48.0211 19.0972 48.0397 22.1859 44.951L29.5358 37.6021C32.6192 34.5187 32.6063 29.535 29.5358 26.4645C29.131 26.0605 28.7233 25.7466 28.4048 25.5273C28.1795 25.3725 27.9934 25.1673 27.8615 24.9279C27.7296 24.6885 27.6554 24.4216 27.645 24.1485C27.6017 22.9927 28.0112 21.8017 28.9244 20.8885L31.2272 18.5856C31.8311 17.9817 32.7784 17.9076 33.4786 18.3962C34.2805 18.9562 35.0316 19.5856 35.7232 20.2772ZM51.1379 4.86166C44.6562 -1.6201 34.1093 -1.62098 27.6267 4.86166L20.2767 12.2116C20.2636 12.2248 20.2494 12.239 20.2373 12.2521C13.8317 18.6934 13.7419 29.1813 20.2767 35.7229C20.9683 36.4144 21.7193 37.0438 22.5212 37.6037C23.2214 38.0923 24.1688 38.0181 24.7726 37.4143L27.0753 35.1115C27.9886 34.1982 28.3981 33.0072 28.3548 31.8514C28.3443 31.5783 28.2702 31.3114 28.1383 31.072C28.0063 30.8326 27.8203 30.6274 27.595 30.4726C27.2765 30.2533 26.8687 29.9394 26.4639 29.5354C23.3935 26.4649 23.3806 21.4812 26.4639 18.3978L33.8139 11.0489C36.9026 7.96025 41.9405 7.97885 45.0057 11.1047C48.0408 14.2 47.9448 19.1912 44.8794 22.2565L43.448 23.6879C42.9722 24.1637 42.817 24.8681 43.0342 25.5048C43.6756 27.3854 44.0232 29.3328 44.0941 31.2712C44.1497 32.7922 46.0031 33.5075 47.0793 32.4312L51.1378 28.3728C57.6205 21.8913 57.6205 11.3432 51.1379 4.86166Z"
        fill="#ffff" />
</svg>