<svg width="44" height="82" viewBox="0 0 44 82" fill="none" xmlns="http://www.w3.org/2000/svg">
<path d="M8.13772 4.5215L16.5717 0V10.0765H28.338V17.544H16.4236V48.2863C16.4236 48.8023 16.5035 52.0526 18.7905 53.4947C19.8475 54.1604 21.0759 54.2483 22.3159 54.3378C23.5394 54.4252 24.7693 54.3358 25.9661 54.0725V61.3105C25.5217 61.4732 18.942 63.7356 13.316 59.5705C8.48893 55.9898 8.16768 50.4836 8.13772 49.7316V17.5424H0V10.0912H8.14272L8.13772 4.5215Z" fill="white"/>
<path d="M21.805 35.3612V27.4038C22.5024 27.1157 30.7283 23.867 37.8574 28.5627C41.8688 31.2027 43.4567 34.9918 43.9977 36.5184V68.4945C44.021 69.5954 43.8712 70.6933 43.5533 71.7497C41.9554 77.028 36.5424 79.4613 34.9229 80.1889C34.282 80.477 23.9122 84.935 15.6397 78.6947C10.8492 75.0782 9.52264 69.9593 9.15479 68.1966H17.5156C17.7719 68.9811 18.9054 72.2657 22.2477 73.8705C26.8584 76.0922 31.5506 73.1674 32.3579 72.6644C33.5238 71.9863 34.5052 71.0433 35.2191 69.9154C35.6929 69.1411 36.0262 68.2925 36.2045 67.4072L36.0813 58.5807C35.4871 58.9437 34.8463 59.3083 34.1588 59.668C33.31 60.1107 32.4944 60.4948 31.717 60.8252V53.9518C33.0652 53.04 34.1795 51.8356 34.9728 50.4329C37.626 45.6575 35.9082 39.1633 32.1615 36.1571C31.3869 35.5366 30.5115 35.0475 29.5715 34.7102C26.0528 33.4781 22.7654 34.899 21.805 35.3612Z" fill="white"/>
</svg>
