<svg width="26" height="30" viewBox="0 0 26 30" fill="none" xmlns="http://www.w3.org/2000/svg">
<path fill-rule="evenodd" clip-rule="evenodd" d="M18.5378 0.833374C22.9918 0.833374 25.9838 3.88346 25.9838 8.42246V21.4501C25.9838 26.0288 23.0838 29.0066 18.5958 29.035L7.69742 29.0392C3.24342 29.0392 0.25 25.9891 0.25 21.4501V8.42246C0.25 3.84237 3.14992 0.865957 7.63792 0.839041L18.5363 0.833374H18.5378ZM18.5378 2.95837L7.645 2.96404C4.347 2.98387 2.375 5.02387 2.375 8.42246V21.4501C2.375 24.8714 4.36542 26.9142 7.696 26.9142L18.5888 26.91C21.8868 26.8901 23.8587 24.8473 23.8587 21.4501V8.42246C23.8587 5.00121 21.8698 2.95837 18.5378 2.95837ZM18.2645 19.9211C18.851 19.9211 19.327 20.3971 19.327 20.9836C19.327 21.5701 18.851 22.0461 18.2645 22.0461H8.03614C7.44964 22.0461 6.97364 21.5701 6.97364 20.9836C6.97364 20.3971 7.44964 19.9211 8.03614 19.9211H18.2645ZM18.2645 13.9902C18.851 13.9902 19.327 14.4662 19.327 15.0527C19.327 15.6392 18.851 16.1152 18.2645 16.1152H8.03614C7.44964 16.1152 6.97364 15.6392 6.97364 15.0527C6.97364 14.4662 7.44964 13.9902 8.03614 13.9902H18.2645ZM11.9386 8.07311C12.5251 8.07311 13.0011 8.54911 13.0011 9.13561C13.0011 9.72211 12.5251 10.1981 11.9386 10.1981H8.03572C7.44922 10.1981 6.97322 9.72211 6.97322 9.13561C6.97322 8.54911 7.44922 8.07311 8.03572 8.07311H11.9386Z" fill="#849AA9"/>
</svg>
