<svg width="30" height="30" viewBox="0 0 30 30" fill="none" xmlns="http://www.w3.org/2000/svg">
<path fill-rule="evenodd" clip-rule="evenodd" d="M21.0916 0.833313C25.8871 0.833313 29.11 4.19223 29.11 9.19023V20.7389C29.11 25.7369 25.8871 29.0958 21.0916 29.0958H8.83748C4.04915 29.0958 0.833313 25.7369 0.833313 20.7389V9.19023C0.833313 4.19223 4.04915 0.833313 8.83748 0.833313H21.0916ZM21.0916 2.95831H8.83748C5.26606 2.95831 2.95831 5.4049 2.95831 9.19023V20.7389C2.95831 24.5256 5.26606 26.9708 8.83748 26.9708H21.0916C24.6716 26.9708 26.985 24.5256 26.985 20.7389V9.19023C26.985 5.4049 24.6716 2.95831 21.0916 2.95831ZM21.9969 15.1408C22.0059 15.1481 22.0147 15.1554 22.0331 15.1726L22.0605 15.1987C22.0661 15.2041 22.0721 15.21 22.0788 15.2166L22.1579 15.2951C22.4134 15.5509 23.1196 16.2721 25.2241 18.4331C25.6335 18.8525 25.6264 19.5254 25.2056 19.9348C24.7863 20.347 24.112 20.3343 23.7026 19.915C23.7026 19.915 20.7998 16.9357 20.593 16.7345C20.3734 16.5546 20.0206 16.4498 19.6736 16.4838C19.3208 16.5192 19.0035 16.6878 18.7782 16.9612C15.4859 20.9548 15.4462 20.993 15.3924 21.0455C14.1769 22.2383 12.2148 22.2185 11.0206 21.0001C11.0206 21.0001 9.70306 19.6628 9.6804 19.6359C9.35315 19.3327 8.76948 19.3525 8.41956 19.7223L6.25206 22.0074C6.0424 22.2284 5.7619 22.3389 5.4814 22.3389C5.2179 22.3389 4.95581 22.2425 4.7504 22.047C4.32398 21.6447 4.30698 20.9704 4.71073 20.5468L6.8754 18.2617C8.02148 17.0448 9.95523 16.9853 11.1778 18.1328L12.535 19.5098C12.9132 19.8923 13.5281 19.8994 13.9077 19.5254C14.0508 19.3568 17.1363 15.6097 17.1363 15.6097C17.7228 14.8985 18.5501 14.4594 19.4696 14.3687C20.3904 14.288 21.2843 14.5557 21.9969 15.1408ZM10.1241 7.39092C12.0819 7.39234 13.6728 8.98467 13.6728 10.9383C13.6728 12.8947 12.0805 14.487 10.1241 14.487C8.16768 14.487 6.57676 12.8947 6.57676 10.9383C6.57676 8.98184 8.16768 7.39092 10.1241 7.39092ZM10.1227 9.51592C9.33926 9.51592 8.70176 10.1534 8.70176 10.9383C8.70176 11.7231 9.33926 12.362 10.1241 12.362C10.9089 12.362 11.5478 11.7231 11.5478 10.9383C11.5478 10.1548 10.9089 9.51734 10.1227 9.51592Z" fill="#849AA9"/>
</svg>
