<svg width="31" height="31" viewBox="0 0 31 31" fill="none" xmlns="http://www.w3.org/2000/svg">
<path fill-rule="evenodd" clip-rule="evenodd" d="M21.9927 0.416687C27.1309 0.416687 30.5833 4.02352 30.5833 9.39127V21.9004C30.5833 27.2682 27.1309 30.875 21.9927 30.875H8.71567C3.57742 30.875 0.125 27.2682 0.125 21.9004V9.39127C0.125 4.02352 3.57742 0.416687 8.71567 0.416687H21.9927ZM21.9927 2.54169H8.71567C4.78867 2.54169 2.25 5.2291 2.25 9.39127V21.9004C2.25 26.0626 4.78867 28.75 8.71567 28.75H21.9927C25.9211 28.75 28.4583 26.0626 28.4583 21.9004V9.39127C28.4583 5.2291 25.9211 2.54169 21.9927 2.54169ZM8.79656 12.0369C9.38306 12.0369 9.85906 12.5129 9.85906 13.0994V22.8177C9.85906 23.4042 9.38306 23.8802 8.79656 23.8802C8.21006 23.8802 7.73406 23.4042 7.73406 22.8177V13.0994C7.73406 12.5129 8.21006 12.0369 8.79656 12.0369ZM15.4081 7.38456C15.9946 7.38456 16.4706 7.86056 16.4706 8.44706V22.8163C16.4706 23.4028 15.9946 23.8788 15.4081 23.8788C14.8216 23.8788 14.3456 23.4028 14.3456 22.8163V8.44706C14.3456 7.86056 14.8216 7.38456 15.4081 7.38456ZM21.9111 17.1723C22.4976 17.1723 22.9736 17.6483 22.9736 18.2348V22.8163C22.9736 23.4028 22.4976 23.8788 21.9111 23.8788C21.3246 23.8788 20.8486 23.4028 20.8486 22.8163V18.2348C20.8486 17.6483 21.3246 17.1723 21.9111 17.1723Z" fill="#849AA9"/>
</svg>
