<svg width="42" height="48" viewBox="0 0 42 48" fill="none" xmlns="http://www.w3.org/2000/svg">
<path fill-rule="evenodd" clip-rule="evenodd" d="M3.00002 0C3.79566 0 4.55873 0.31607 5.12134 0.87868C5.68394 1.44129 6.00002 2.20435 6.00002 3V9.303C8.49614 6.75682 11.5993 4.88792 15.0172 3.87235C18.4352 2.85678 22.0554 2.72796 25.5369 3.49802C29.0183 4.26808 32.2465 5.91167 34.9173 8.274C37.5881 10.6363 39.6136 13.6396 40.803 17.001C40.9473 17.3753 41.0151 17.7747 41.0023 18.1756C40.9896 18.5765 40.8966 18.9708 40.7288 19.3352C40.561 19.6995 40.3218 20.0265 40.0254 20.2968C39.7291 20.5671 39.3815 20.7753 39.0033 20.9089C38.6251 21.0425 38.2239 21.0989 37.8235 21.0748C37.4231 21.0507 37.0316 20.9465 36.6721 20.7685C36.3127 20.5904 35.9926 20.342 35.7308 20.0381C35.469 19.7342 35.2709 19.3809 35.148 18.999C34.2424 16.4394 32.6594 14.1735 30.5676 12.4427C28.4757 10.7119 25.9535 9.58106 23.2697 9.17064C20.5859 8.76023 17.841 9.08565 15.3275 10.1122C12.814 11.1388 10.6261 12.8281 8.99701 15H18C18.7957 15 19.5587 15.3161 20.1213 15.8787C20.6839 16.4413 21 17.2044 21 18C21 18.7957 20.6839 19.5587 20.1213 20.1213C19.5587 20.6839 18.7957 21 18 21H3.00002C2.20437 21 1.4413 20.6839 0.878695 20.1213C0.316086 19.5587 1.52588e-05 18.7957 1.52588e-05 18V3C1.52588e-05 2.20435 0.316086 1.44129 0.878695 0.87868C1.4413 0.31607 2.20437 0 3.00002 0ZM3.02401 27.171C3.39552 27.0398 3.78924 26.983 4.18268 27.004C4.57613 27.0249 4.96159 27.1232 5.31706 27.2931C5.67253 27.4631 5.99104 27.7013 6.25441 27.9944C6.51778 28.2874 6.72085 28.6295 6.85202 29.001C7.75761 31.5606 9.34065 33.8265 11.4325 35.5573C13.5243 37.2881 16.0465 38.4189 18.7303 38.8294C21.4142 39.2398 24.1591 38.9144 26.6725 37.8878C29.186 36.8612 31.3739 35.1719 33.003 33H24C23.2044 33 22.4413 32.6839 21.8787 32.1213C21.3161 31.5587 21 30.7957 21 30C21 29.2044 21.3161 28.4413 21.8787 27.8787C22.4413 27.3161 23.2044 27 24 27H39C39.7957 27 40.5587 27.3161 41.1213 27.8787C41.6839 28.4413 42 29.2044 42 30V45C42 45.7957 41.6839 46.5587 41.1213 47.1213C40.5587 47.6839 39.7957 48 39 48C38.2044 48 37.4413 47.6839 36.8787 47.1213C36.3161 46.5587 36 45.7957 36 45V38.697C33.5039 41.2432 30.4007 43.1121 26.9828 44.1277C23.5648 45.1432 19.9446 45.272 16.4632 44.502C12.9817 43.7319 9.75353 42.0883 7.08275 39.726C4.41196 37.3637 2.38645 34.3604 1.19702 30.999C1.0658 30.6275 1.00904 30.2338 1.03 29.8403C1.05095 29.4469 1.1492 29.0614 1.31913 28.706C1.48907 28.3505 1.72736 28.032 2.0204 27.7686C2.31344 27.5052 2.65549 27.3022 3.02701 27.171H3.02401Z" fill="#2CDDC7"/>
</svg>
