<svg width="30" height="30" viewBox="0 0 30 30" fill="none" xmlns="http://www.w3.org/2000/svg">
<path fill-rule="evenodd" clip-rule="evenodd" d="M14.6458 0.125C22.6528 0.125 29.1667 6.63883 29.1667 14.6458C29.1667 22.6528 22.6528 29.1667 14.6458 29.1667C6.63883 29.1667 0.125 22.6528 0.125 14.6458C0.125 6.63883 6.63883 0.125 14.6458 0.125ZM14.6458 2.25C7.81042 2.25 2.25 7.81042 2.25 14.6458C2.25 21.4812 7.81042 27.0417 14.6458 27.0417C21.4812 27.0417 27.0417 21.4812 27.0417 14.6458C27.0417 7.81042 21.4812 2.25 14.6458 2.25ZM14.052 9.70365C14.7886 10.0111 19.958 12.6588 19.958 14.6393C19.958 16.4951 15.3057 19.0905 14.1171 19.5863C13.6539 19.779 13.1255 19.9603 12.631 19.9603C12.2485 19.9603 11.8859 19.8512 11.5898 19.5566C11.3617 19.3313 10.7526 18.7292 10.7497 14.764C10.7483 10.5536 11.3815 9.92748 11.5898 9.71923C12.3307 8.9854 13.5377 9.48832 14.052 9.70365ZM13.0645 11.5807C12.8138 12.9988 12.8096 16.3861 13.0603 17.7319C14.3041 17.2927 16.9986 15.5219 17.724 14.645C17.0015 13.7936 14.341 12.0596 13.0645 11.5807Z" fill="#849AA9"/>
</svg>
